STARTFONT 2.3
FONT -FontForge-Tangerine-Book-R-Normal--32-320-72-72-P-119-ISO10646-1
SIZE 32 72 72  2
FONTBOUNDINGBOX 54 34 -11 -9
COMMENT "Generated by fontforge, http://fontforge.sourceforge.net"
COMMENT "Copyright (c) 2010 by Toshi Omagari. All rights reserved."
STARTPROPERTIES 40
FOUNDRY "FontForge"
FAMILY_NAME "Tangerine"
WEIGHT_NAME "Book"
SLANT "R"
SETWIDTH_NAME "Normal"
ADD_STYLE_NAME ""
PIXEL_SIZE 32
POINT_SIZE 320
RESOLUTION_X 72
RESOLUTION_Y 72
SPACING "P"
AVERAGE_WIDTH 119
CHARSET_REGISTRY "ISO10646"
CHARSET_ENCODING "1"
FONTNAME_REGISTRY ""
CHARSET_COLLECTIONS "ISO10646-1"
BITS_PER_PIXEL 2
FONT_NAME "Tangerine-Regular"
FACE_NAME "Tangerine Regular"
COPYRIGHT "Copyright (c) 2010 by Toshi Omagari. All rights reserved."
FONT_VERSION "1.3"
FONT_ASCENT 24
FONT_DESCENT 8
UNDERLINE_POSITION -3
UNDERLINE_THICKNESS 2
X_HEIGHT 7
CAP_HEIGHT 20
RAW_ASCENT 750
RAW_DESCENT 250
NORM_SPACE 5
RELATIVE_WEIGHT 40
RELATIVE_SETWIDTH 50
SUPERSCRIPT_X 0
SUPERSCRIPT_Y 15
SUPERSCRIPT_SIZE 20
SUBSCRIPT_X 0
SUBSCRIPT_Y 4
SUBSCRIPT_SIZE 20
AVG_LOWERCASE_WIDTH 78
AVG_UPPERCASE_WIDTH 225
ENDPROPERTIES
CHARS 233
STARTCHAR space
ENCODING 32
SWIDTH 150 0
DWIDTH 5 0
BBX 1 1 0 0
BITMAP
00
ENDCHAR
STARTCHAR exclam
ENCODING 33
SWIDTH 189 0
DWIDTH 6 0
BBX 8 17 2 0
BITMAP
0006
000E
001C
0028
0030
0060
0090
0080
0240
0200
0500
0800
0400
0000
0000
A000
C000
ENDCHAR
STARTCHAR quotedbl
ENCODING 34
SWIDTH 214 0
DWIDTH 7 0
BBX 7 4 2 9
BITMAP
1D74
2490
6180
8200
ENDCHAR
STARTCHAR numbersign
ENCODING 35
SWIDTH 289 0
DWIDTH 9 0
BBX 10 10 0 0
BITMAP
002080
008200
0FFFE0
020800
020800
051400
6FFA00
081000
144000
104000
ENDCHAR
STARTCHAR dollar
ENCODING 36
SWIDTH 269 0
DWIDTH 9 0
BBX 9 14 0 -2
BITMAP
000200
000500
00AA00
014640
025100
029000
00E000
006400
115800
611800
A12400
6A9000
080000
140000
ENDCHAR
STARTCHAR percent
ENCODING 37
SWIDTH 388 0
DWIDTH 12 0
BBX 12 14 0 -2
BITMAP
000005
000008
06D020
146090
206140
605200
60886D
3E1546
006206
008605
020608
0502E0
080000
200000
ENDCHAR
STARTCHAR ampersand
ENCODING 38
SWIDTH 507 0
DWIDTH 16 0
BBX 16 15 0 0
BITMAP
0007C000
00149000
00205000
00208000
00604000
00210000
00340000
0164006D
09180182
240C0100
300A0400
70075000
7401D000
2D01B905
0BE81BE4
ENDCHAR
STARTCHAR quotesingle
ENCODING 39
SWIDTH 120 0
DWIDTH 4 0
BBX 4 4 2 9
BITMAP
1D
24
60
80
ENDCHAR
STARTCHAR parenleft
ENCODING 40
SWIDTH 250 0
DWIDTH 8 0
BBX 8 24 3 -3
BITMAP
0001
0008
0020
0090
0180
0340
0600
0900
1C00
2800
3400
7000
7000
A000
9000
D000
D000
C000
C000
C000
8000
8000
5000
2000
ENDCHAR
STARTCHAR parenright
ENCODING 41
SWIDTH 276 0
DWIDTH 9 0
BBX 8 23 1 -3
BITMAP
0008
0008
0008
0009
0009
0009
0009
0009
000D
000D
001C
001C
0028
0034
0070
00A0
00D0
0180
0240
0600
0800
2400
5000
ENDCHAR
STARTCHAR asterisk
ENCODING 42
SWIDTH 188 0
DWIDTH 6 0
BBX 5 5 1 8
BITMAP
0200
5600
1800
2200
5140
ENDCHAR
STARTCHAR plus
ENCODING 43
SWIDTH 301 0
DWIDTH 10 0
BBX 8 7 1 1
BITMAP
0060
0080
0080
7FFE
0240
0200
0600
ENDCHAR
STARTCHAR comma
ENCODING 44
SWIDTH 112 0
DWIDTH 4 0
BBX 3 4 0 -2
BITMAP
18
18
20
40
ENDCHAR
STARTCHAR hyphen
ENCODING 45
SWIDTH 245 0
DWIDTH 8 0
BBX 3 1 1 4
BITMAP
54
ENDCHAR
STARTCHAR period
ENCODING 46
SWIDTH 112 0
DWIDTH 4 0
BBX 2 2 1 0
BITMAP
A0
D0
ENDCHAR
STARTCHAR slash
ENCODING 47
SWIDTH 210 0
DWIDTH 7 0
BBX 13 22 -1 -2
BITMAP
00000080
00000140
00000200
00000800
00001400
00002000
00005000
00008000
00020000
00060000
00080000
00140000
00200000
00500000
00800000
02000000
06000000
08000000
14000000
20000000
50000000
40000000
ENDCHAR
STARTCHAR zero
ENCODING 48
SWIDTH 349 0
DWIDTH 11 0
BBX 10 10 1 0
BITMAP
006F40
0241D0
0800A0
140060
200060
300090
700080
340240
2D0900
0BE000
ENDCHAR
STARTCHAR one
ENCODING 49
SWIDTH 189 0
DWIDTH 6 0
BBX 7 10 1 0
BITMAP
01A4
2AE0
02C0
0340
0600
0D00
1C00
2800
7400
A000
ENDCHAR
STARTCHAR two
ENCODING 50
SWIDTH 277 0
DWIDTH 9 0
BBX 9 10 0 0
BITMAP
007E00
024780
050280
000240
000600
000800
006000
024000
1D4100
96FD00
ENDCHAR
STARTCHAR three
ENCODING 51
SWIDTH 253 0
DWIDTH 8 0
BBX 11 15 -2 -5
BITMAP
001AD0
005070
000034
000070
0002D0
006D00
004640
0001C0
0000D0
0000D0
0000C0
000180
400600
906800
7F9000
ENDCHAR
STARTCHAR four
ENCODING 52
SWIDTH 363 0
DWIDTH 12 0
BBX 14 16 1 0
BITMAP
00000050
00000280
00001E00
00005D00
00012800
00083000
0010A000
0140C000
02018000
08024000
29470400
56BFE400
000D0000
001C0000
00380000
00700000
ENDCHAR
STARTCHAR five
ENCODING 53
SWIDTH 250 0
DWIDTH 8 0
BBX 12 16 -2 -5
BITMAP
000001
000FFD
001550
002000
001000
006000
007800
001E00
000740
000280
000280
000240
000300
000900
906400
7E4000
ENDCHAR
STARTCHAR six
ENCODING 54
SWIDTH 296 0
DWIDTH 9 0
BBX 13 16 1 0
BITMAP
00006F40
00064180
00140000
00500000
01800000
02000000
09140000
0DAE0000
1D0B0000
38034000
30034000
70030000
70050000
70080000
38200000
1F800000
ENDCHAR
STARTCHAR seven
ENCODING 55
SWIDTH 326 0
DWIDTH 10 0
BBX 12 15 0 -5
BITMAP
01FFAA
02401D
040018
040020
000090
000240
000600
001800
007000
01D000
034000
0A0000
280000
700000
900000
ENDCHAR
STARTCHAR eight
ENCODING 56
SWIDTH 305 0
DWIDTH 10 0
BBX 11 16 1 0
BITMAP
000100
001AE0
009074
00C024
01C030
00E050
007540
007D00
024B00
180340
300280
A00280
A00280
B00200
780900
1BA000
ENDCHAR
STARTCHAR nine
ENCODING 57
SWIDTH 304 0
DWIDTH 10 0
BBX 12 15 -2 -5
BITMAP
0001A4
00101D
00500D
00800D
01800D
01801D
02C03C
01D0A8
00BE34
000060
0000D0
000180
000600
506400
2F9000
ENDCHAR
STARTCHAR colon
ENCODING 58
SWIDTH 156 0
DWIDTH 5 0
BBX 5 8 0 0
BITMAP
0240
0600
0000
0000
0000
0000
2400
6000
ENDCHAR
STARTCHAR semicolon
ENCODING 59
SWIDTH 156 0
DWIDTH 5 0
BBX 5 11 0 -3
BITMAP
0240
0600
0000
0000
0000
0000
2800
2400
2000
5000
4000
ENDCHAR
STARTCHAR less
ENCODING 60
SWIDTH 301 0
DWIDTH 10 0
BBX 8 7 2 1
BITMAP
0015
01A0
2900
E000
6D00
0790
00A0
ENDCHAR
STARTCHAR equal
ENCODING 61
SWIDTH 301 0
DWIDTH 10 0
BBX 8 5 1 2
BITMAP
2FFF
2940
0000
0000
7FFD
ENDCHAR
STARTCHAR greater
ENCODING 62
SWIDTH 301 0
DWIDTH 10 0
BBX 7 4 2 4
BITMAP
5000
2D00
02E0
0064
ENDCHAR
STARTCHAR question
ENCODING 63
SWIDTH 285 0
DWIDTH 9 0
BBX 11 17 2 0
BITMAP
000500
006BD0
0180B0
020034
000034
000030
000090
000240
002400
014000
090000
180000
1D0000
000000
000000
A00000
C00000
ENDCHAR
STARTCHAR at
ENCODING 64
SWIDTH 492 0
DWIDTH 16 0
BBX 14 16 1 -4
BITMAP
001BF800
00A41B40
020002C0
08000090
14002450
20106050
2080D050
60C2C040
60D58000
60A1C000
60004000
34000000
28000100
0E000500
02E9A400
00150000
ENDCHAR
STARTCHAR A
ENCODING 65
SWIDTH 996 0
DWIDTH 32 0
BBX 31 21 1 0
BITMAP
000000000AFFA400
0000000064016FE4
00000001400001BC
00000001000000B4
0000000400000350
0000000400001D80
0000000400006140
0000000000018200
0000000000060200
0000000000080500
0000000000200800
0000000000800C00
00000002FFFFF800
0000000005001800
1000000014002800
2000000090002800
6000000240002800
6000001800002800
3800019000002804
2F55690000001EA0
06FE900000000B80
ENDCHAR
STARTCHAR B
ENCODING 66
SWIDTH 638 0
DWIDTH 20 0
BBX 20 22 1 0
BITMAP
0000000140
00001ABE80
00005066F4
000500C07D
000402401E
001007000B
000009000A
00000C0009
0000180018
0000240460
0000342F40
00007002D0
00009000B4
0000C00038
000180002C
000200001C
000500001C
A014000018
7E40000024
0B40000060
01B8000280
0006A95500
ENDCHAR
STARTCHAR C
ENCODING 67
SWIDTH 557 0
DWIDTH 18 0
BBX 18 21 2 0
BITMAP
00005AAE80
00054001F0
0024000030
0080000010
0240000000
0600000000
0C00000000
2800000000
3400000000
7000000000
B000000000
B000000000
B000000000
B000000000
B000000000
7400000100
3800000400
2D00000800
0B40002400
02D000B000
002AAA4000
ENDCHAR
STARTCHAR D
ENCODING 68
SWIDTH 799 0
DWIDTH 26 0
BBX 25 22 1 0
BITMAP
00000000004000
00006FE9090000
0006401BE00000
00140001F80000
00500003AE0000
0040000A07C000
0040000D01E000
0000001C00B400
00000034002C00
00000070001D00
000000A0000B00
000000D0000700
000001C0000340
00000280000340
00000340000340
00000600000340
00000C00000300
00001800000600
05546000000800
65AFD000001400
C006BE50015000
AA5005BFA90000
ENDCHAR
STARTCHAR E
ENCODING 69
SWIDTH 494 0
DWIDTH 16 0
BBX 16 21 2 0
BITMAP
000056A4
0002001D
00080009
00180004
00280000
001D0000
000B8000
0007E000
00540000
01000000
08000000
20000000
60000000
A0000000
D0000000
D0000050
E0000080
B0000080
78000240
2D001A00
06AA9000
ENDCHAR
STARTCHAR F
ENCODING 70
SWIDTH 626 0
DWIDTH 20 0
BBX 25 21 1 0
BITMAP
000001AFE94000
0000090015F940
00001000024140
00004000090000
00014000180000
00000000340000
00000000700000
00000000A00000
00000000900000
00000000C00000
0000016BFE4000
00001A52800000
00000003400000
04000006000000
10000009000000
20000018000000
60000020000000
70000090000000
34000240000000
2E406800000000
06FE4000000000
ENDCHAR
STARTCHAR G
ENCODING 71
SWIDTH 571 0
DWIDTH 18 0
BBX 24 27 -1 -6
BITMAP
000000006FE4
00000006506C
00000014000D
000000800008
000002000014
000005000010
000018000000
000020000000
000060000000
000090000000
0000D0000000
0001C0000000
0001C0000000
0002C0002800
0002C0003400
0001D000B000
0000E002A000
00007954D000
24000141C000
500000024000
D00000020000
D00000090000
D00000140000
E00000600000
B40001400000
2D0015000000
06AA50000000
ENDCHAR
STARTCHAR H
ENCODING 72
SWIDTH 865 0
DWIDTH 28 0
BBX 36 22 1 0
BITMAP
0000000000000001BE
000002BFA400000A46
000019006D00002001
000050006000008000
000040008000010000
000040024000050000
000040030000080000
000000060000140000
0000000A0000200000
0000000D0000600000
0000001C0000C00000
000000280001800000
0006BFF95002400000
00690075AFA7000000
024000A0006F900000
080000C0000A000000
20000180000D000000
60000200000C000000
60000900001C000000
70002400002C100000
38018000002E900000
1BF90000000E400000
ENDCHAR
STARTCHAR I
ENCODING 73
SWIDTH 554 0
DWIDTH 18 0
BBX 23 21 1 0
BITMAP
0000000006B4
000000006E90
00000002D100
0000000A0500
000000240800
000000901800
000001403400
000002003000
000001006000
000004009000
00000400C000
000004018000
000004024000
000001020000
010001490000
180000290000
300000200000
700000800000
740006000000
2D0064000000
06FE40000000
ENDCHAR
STARTCHAR J
ENCODING 74
SWIDTH 634 0
DWIDTH 20 0
BBX 26 27 0 -6
BITMAP
000000000006B0
00000000007E80
00000000039100
000000001D0800
00000000601800
00000000802000
00000002403000
00000002006000
00000004009000
0000000400C000
00000004018000
00000004024000
00000004030000
00000004060000
00000001090000
00054000190000
00500000240000
01000000200000
04000000900000
10000001800000
60000002000000
90000008000000
C0000014000000
D0000090000000
A0000600000000
79016400000000
1BFA4000000000
ENDCHAR
STARTCHAR K
ENCODING 75
SWIDTH 936 0
DWIDTH 30 0
BBX 31 21 1 0
BITMAP
0000006FF90002F4
00000A405B40196C
0000240009009008
0000400024020000
0001400060080000
00010000A0200000
00010000D0800000
00010001C2000000
00010001C4000000
0001000298000000
000000024C000000
0000000349000000
000000070A000000
0500000A07000000
1400000C03400000
2000001802C00000
6000002000D00000
7000008000B00000
7400024000380000
2D005400001E4200
0BFA40000002F800
ENDCHAR
STARTCHAR L
ENCODING 76
SWIDTH 657 0
DWIDTH 21 0
BBX 22 21 1 0
BITMAP
000000001BE0
000000005070
000000010020
000000040020
000000140010
000000200000
000000500000
000000800000
000000C00000
000001800000
000002400000
000003000000
000006000000
000009000000
00000C000000
000018000000
000034000000
2AF960000100
801BD0000400
D0056E401400
7A9006FF9000
ENDCHAR
STARTCHAR M
ENCODING 77
SWIDTH 1219 0
DWIDTH 39 0
BBX 41 21 1 0
BITMAP
00000001AFE94000000240
000000090016F940001D00
0000001000001B8000B400
000000400000070002A000
0000004000000E00098000
0000010000002C00264000
0000010000006800930000
000000000000A4024A0000
00000000000230090C0000
0000000000096024180000
0100000000149060240000
080000000060C180300000
2400000000818200700000
3000000002024900600000
7000000008035800A00000
7000000060032000A00000
7400000180079000A00000
3800000A00078000A00000
2E000064000B0000B01000
0B955B40000A0000798000
01BFA400000800002E0000
ENDCHAR
STARTCHAR N
ENCODING 78
SWIDTH 990 0
DWIDTH 32 0
BBX 40 21 1 0
BITMAP
000001BF8000000000BC
00000945BA000000039A
000010001F0000000D02
0000000003C000002400
0000000002E000005000
00000000057800008000
00000000091D00014000
00000000080B00020000
00000000080380050000
000000001401C0080000
000000002000E0040000
04000000200070100000
14000000800038200000
2000000080002C100000
6000000200000D500000
6000000500000A400000
70000018000007800000
34000060000003800000
2D000280000002800000
0BE5AD00000002400000
01BF9000000001400000
ENDCHAR
STARTCHAR O
ENCODING 79
SWIDTH 606 0
DWIDTH 19 0
BBX 19 21 2 0
BITMAP
00006BF800
0002501F40
00140002D0
00500000B0
0140000074
0500000038
0800000028
1400000028
2000000018
3000000028
6000000028
A000000024
A000000030
A000000050
A000000080
B000000140
7400000200
2C00000800
1F40005000
07E4064000
00AFE40000
ENDCHAR
STARTCHAR P
ENCODING 80
SWIDTH 783 0
DWIDTH 25 0
BBX 27 22 1 0
BITMAP
00000000001400
00000001ABE800
00000019026F40
000000500A02D0
000001400C00B4
00000100280038
0000040034002C
0000040070002C
00001000A0001C
00000000D00028
00000000C00034
00000005800060
00000006400180
00000003900A00
040000051A5000
10000008000000
50000014000000
50000020000000
60000040000000
34000100000000
1E001400000000
06FE4000000000
ENDCHAR
STARTCHAR Q
ENCODING 81
SWIDTH 563 0
DWIDTH 18 0
BBX 22 26 2 -5
BITMAP
0000BFE00000
0007A6BD0000
0028001F4000
00A000078000
01800002D000
03000001D000
05000000E000
0C000000E000
18000000D000
18000000D000
28000000C000
240000018000
280000020000
180000050000
0D0000080000
0B4000100000
02E800400000
000000000000
000000000000
540000000000
6FD000000000
01BD00000000
0007D0000000
00006E000010
000006E50180
0000001BF900
ENDCHAR
STARTCHAR R
ENCODING 82
SWIDTH 854 0
DWIDTH 27 0
BBX 27 22 1 0
BITMAP
00000000015000
00000001AFE400
000000141D7E00
00000140340B40
00000400600380
00001000D001C0
00000001C001C0
000000028001C0
00000003400140
00000007000200
0000000A000400
0000000D155000
0000001C340000
00000028280000
04000034280000
100000601C0000
100000C00D0000
500001400A0000
50000600074000
6000180002C004
2901900000F410
0BF90000002F80
ENDCHAR
STARTCHAR S
ENCODING 83
SWIDTH 480 0
DWIDTH 15 0
BBX 16 21 1 0
BITMAP
000007F4
0000296D
0000500A
0000C006
0000C005
0000C000
0000A000
00007000
00002800
00000D00
00000700
00000280
000001C0
040000A0
140000A0
30000060
60000050
70000080
38000140
1E400500
02FA9000
ENDCHAR
STARTCHAR T
ENCODING 84
SWIDTH 577 0
DWIDTH 18 0
BBX 25 21 1 0
BITMAP
00001AFFE94000
0000A4005AFA40
00060000006A80
00080000024000
00100000090000
00100000180000
00100000300000
00100000A00000
00000000D00000
00000001C00000
00000002800000
00000003400000
00000007000000
00000009000000
0400001C000000
20000024000000
60000060000000
70000080000000
74000600000000
2E406400000000
06FE4000000000
ENDCHAR
STARTCHAR U
ENCODING 85
SWIDTH 752 0
DWIDTH 24 0
BBX 25 21 2 0
BITMAP
001BFA40000280
019016D0000740
05000140000A00
14000500000C00
10001400002800
50002000003400
40008000006000
4001800000D000
4003000001C000
40060000038000
40090000074000
001C00000B0000
001800002A0000
00280000590000
003400004D0000
003400011C0000
003400051C0000
00340014180000
003800502C1400
002E06401E9000
000BE4000B4000
ENDCHAR
STARTCHAR V
ENCODING 86
SWIDTH 661 0
DWIDTH 21 0
BBX 22 21 2 0
BITMAP
006F90001F40
0291B80051D0
05002D0000A0
04000E000070
100007000030
100003400070
400002400060
400002800090
0000028000C0
000001800240
000001800600
000001400800
000002402400
000002409000
000002024000
000003090000
000006340000
000006D00000
00000B400000
00000D000000
000014000000
ENDCHAR
STARTCHAR W
ENCODING 87
SWIDTH 822 0
DWIDTH 26 0
BBX 28 21 2 0
BITMAP
00BF800000002C
0656F00001005E
04007400090046
10002800240006
50001C00600006
40000C01D00005
40000802D00009
40000809C00008
00000818C00024
00000820D00020
00000850D00080
00000880D00140
00000600D00600
00001600901800
00001800A02000
00002800A08000
00003000A24000
00006000A90000
00009000780000
00008000B00000
00014000900000
ENDCHAR
STARTCHAR X
ENCODING 88
SWIDTH 813 0
DWIDTH 26 0
BBX 26 21 1 0
BITMAP
000002C00006E0
00000BE0007AF0
000014A0029030
000020700A0020
00004030180010
00000034600000
00000024800000
00000029400000
0000001A000000
0000001D000000
0000000C000000
0000001D000000
0000001A000000
00000047000000
00000143400000
04000102800000
10000801D00000
30002000A00000
70018000380040
7D5A00001E4200
1FE4000002F900
ENDCHAR
STARTCHAR Y
ENCODING 89
SWIDTH 662 0
DWIDTH 21 0
BBX 28 25 0 -4
BITMAP
000000B8000006
0000051C00000D
0000041C00001C
0000001C000034
00000028000070
000000340000D0
000000700002C0
00000060000340
00000090000B00
000000C0001D00
00000180002800
0000028000A400
00040240016000
00540340058000
05000340154000
14000381920000
200001F9080000
60000000140000
90000000100000
A0000000800000
A0000001000000
70000004000000
38000050000000
1F401A40000000
02FF9000000000
ENDCHAR
STARTCHAR Z
ENCODING 90
SWIDTH 625 0
DWIDTH 20 0
BBX 22 21 1 0
BITMAP
00001BFE4000
00006405B850
000080001BC0
000140000600
000100001800
000000006000
000000018000
000000060000
000000180000
000000A00000
000002800000
000009000000
000024000000
000090000000
000240000000
000900000000
003400000400
01D000001000
074000005000
1FE940064000
6016BFE90000
ENDCHAR
STARTCHAR bracketleft
ENCODING 91
SWIDTH 318 0
DWIDTH 10 0
BBX 12 23 2 -3
BITMAP
000E59
001C00
002800
002800
003400
007000
006000
00A000
00D000
00C000
018000
028000
034000
030000
070000
0A0000
0D0000
0D0000
1C0000
280000
380000
740000
7A9000
ENDCHAR
STARTCHAR backslash
ENCODING 92
SWIDTH 212 0
DWIDTH 7 0
BBX 5 21 1 -1
BITMAP
8000
8000
8000
5000
5000
2000
2000
2000
1000
1400
0800
0800
0800
0800
0500
0200
0200
0200
0200
0140
0080
ENDCHAR
STARTCHAR bracketright
ENCODING 93
SWIDTH 339 0
DWIDTH 11 0
BBX 12 23 0 -3
BITMAP
0006AE
00001D
00001C
000028
000028
000034
000070
000060
0000A0
0000D0
0000C0
000180
000280
000340
000300
000700
000A00
000D00
000C00
001C00
002800
003400
6AB400
ENDCHAR
STARTCHAR asciicircum
ENCODING 94
SWIDTH 272 0
DWIDTH 9 0
BBX 7 6 1 6
BITMAP
0090
01A0
0230
0824
141C
5008
ENDCHAR
STARTCHAR underscore
ENCODING 95
SWIDTH 356 0
DWIDTH 11 0
BBX 11 1 -1 -2
BITMAP
6AAA54
ENDCHAR
STARTCHAR grave
ENCODING 96
SWIDTH 155 0
DWIDTH 5 0
BBX 3 3 1 10
BITMAP
40
B0
18
ENDCHAR
STARTCHAR a
ENCODING 97
SWIDTH 294 0
DWIDTH 9 0
BBX 8 8 1 0
BITMAP
02FA
091D
3408
6024
D070
D0B0
E671
7434
ENDCHAR
STARTCHAR b
ENCODING 98
SWIDTH 247 0
DWIDTH 8 0
BBX 16 24 1 0
BITMAP
000001BD
00000946
00001001
00004000
00010000
00040000
00040000
00100000
00500000
00800000
00400000
02000000
02000000
05000000
08000000
18000000
25B40000
35280000
34180000
70240000
A0200000
90500000
D1400000
B9000000
ENDCHAR
STARTCHAR c
ENCODING 99
SWIDTH 203 0
DWIDTH 7 0
BBX 6 8 1 0
BITMAP
0090
1050
1000
5000
9000
D040
E140
7900
ENDCHAR
STARTCHAR d
ENCODING 100
SWIDTH 285 0
DWIDTH 9 0
BBX 20 24 1 0
BITMAP
000000007D
0000000259
0000000800
0000001000
0000004000
0000010000
0000010000
0000040000
0000140000
0000200000
0000500000
0000800000
0001800000
0002400000
0002000000
0006000000
016D000000
140C000000
2018000000
5034000000
9074000000
D170000000
E571000000
7438000000
ENDCHAR
STARTCHAR e
ENCODING 101
SWIDTH 206 0
DWIDTH 7 0
BBX 6 8 1 0
BITMAP
06D0
10A0
2180
6400
D000
D000
E040
7900
ENDCHAR
STARTCHAR f
ENCODING 102
SWIDTH 156 0
DWIDTH 5 0
BBX 27 32 -10 -8
BITMAP
000000000006F0
00000000002568
00000000008008
00000000010000
00000000050000
00000000080000
00000000200000
00000000600000
00000000800000
00000001800000
00000002400000
00000003000000
00000006000000
00000009000000
0000000C000000
00000018000000
000002FFA00000
00000034000000
00000070000000
000000A0000000
000000C0000000
00000180000000
00000240000000
00000300000000
00000900000000
00000800000000
00001400000000
00002000000000
00008000000000
10010000000000
60040000000000
2A900000000000
ENDCHAR
STARTCHAR g
ENCODING 103
SWIDTH 210 0
DWIDTH 7 0
BBX 12 17 -4 -8
BITMAP
000005
0000B0
000430
001030
002020
003490
001E80
000140
000240
000280
1400C0
7000A0
A00060
A00060
7400A0
2E4180
06FD00
ENDCHAR
STARTCHAR h
ENCODING 104
SWIDTH 292 0
DWIDTH 9 0
BBX 17 24 1 0
BITMAP
0000006F40
0000024280
0000040040
0000100000
0000400000
0001000000
0005000000
0008000000
0014000000
0020000000
0050000000
0080000000
0140000000
0200000000
0600000000
0900000000
0C1E000000
184A000000
250C000000
3418000000
7424000000
A030000000
D031000000
C038000000
ENDCHAR
STARTCHAR i
ENCODING 105
SWIDTH 149 0
DWIDTH 5 0
BBX 6 12 1 0
BITMAP
0050
0140
0200
0000
0900
1800
2400
3000
6000
9000
D400
A400
ENDCHAR
STARTCHAR j
ENCODING 106
SWIDTH 136 0
DWIDTH 4 0
BBX 16 20 -10 -8
BITMAP
00000001
00000005
00000008
00000000
00000060
000001A0
00000090
000000C0
00000180
00000240
00000300
00000600
00000900
00000800
00002000
00005000
00008000
40020000
50140000
2A500000
ENDCHAR
STARTCHAR k
ENCODING 107
SWIDTH 259 0
DWIDTH 8 0
BBX 17 24 1 0
BITMAP
0000006E00
0000064240
0000140140
0000500000
0001400000
0001000000
0008000000
0014000000
0020000000
0050000000
0080000000
0140000000
0200000000
0600000000
0900000000
0C00000000
1868000000
251C000000
3424000000
7650000000
6600000000
9300000000
D280000000
80A4000000
ENDCHAR
STARTCHAR l
ENCODING 108
SWIDTH 134 0
DWIDTH 4 0
BBX 15 24 1 0
BITMAP
000002F0
00000A64
00002000
00008000
00020000
00050000
00040000
00100000
00100000
00800000
00400000
02000000
02000000
05000000
08000000
18000000
24000000
30000000
60000000
A0000000
90000000
D0000000
D1000000
A4000000
ENDCHAR
STARTCHAR m
ENCODING 109
SWIDTH 413 0
DWIDTH 13 0
BBX 12 8 1 0
BITMAP
2C681D
5D0C49
191D0D
281818
302424
603034
90A031
809038
ENDCHAR
STARTCHAR n
ENCODING 110
SWIDTH 291 0
DWIDTH 9 0
BBX 9 8 0 0
BITMAP
0B0780
171280
064300
0A0600
0D0900
180C00
240C40
600E00
ENDCHAR
STARTCHAR o
ENCODING 111
SWIDTH 225 0
DWIDTH 7 0
BBX 6 8 1 0
BITMAP
07D0
14A0
2060
9060
C050
C080
D200
7800
ENDCHAR
STARTCHAR p
ENCODING 112
SWIDTH 261 0
DWIDTH 8 0
BBX 9 17 -1 -8
BITMAP
00A000
019680
0081C0
0180C0
020180
060240
090200
0D1900
1FE000
240000
300000
600000
900000
900000
C00000
C00000
E40000
ENDCHAR
STARTCHAR q
ENCODING 113
SWIDTH 269 0
DWIDTH 9 0
BBX 8 16 1 -8
BITMAP
015A
080A
200C
9024
C070
C1A0
D5C0
A580
0240
0300
0600
0A00
0D00
0C00
1C00
1E40
ENDCHAR
STARTCHAR r
ENCODING 114
SWIDTH 195 0
DWIDTH 6 0
BBX 7 8 1 0
BITMAP
28B4
5910
1800
2800
2400
3000
6000
9000
ENDCHAR
STARTCHAR s
ENCODING 115
SWIDTH 188 0
DWIDTH 6 0
BBX 6 8 0 0
BITMAP
0660
0910
0900
0700
0280
41C0
8180
9600
ENDCHAR
STARTCHAR t
ENCODING 116
SWIDTH 171 0
DWIDTH 5 0
BBX 6 12 1 0
BITMAP
0080
0240
0300
0900
6F90
1C00
2400
3000
6000
A000
A100
7800
ENDCHAR
STARTCHAR u
ENCODING 117
SWIDTH 299 0
DWIDTH 10 0
BBX 8 8 1 0
BITMAP
0902
2809
241C
6028
A064
9124
D535
B42D
ENDCHAR
STARTCHAR v
ENCODING 118
SWIDTH 271 0
DWIDTH 9 0
BBX 8 8 1 0
BITMAP
2C19
5C05
1809
1808
2424
3090
7240
A400
ENDCHAR
STARTCHAR w
ENCODING 119
SWIDTH 369 0
DWIDTH 12 0
BBX 11 8 1 0
BITMAP
B40070
282064
286014
18A014
295010
289010
28A140
207900
ENDCHAR
STARTCHAR x
ENCODING 120
SWIDTH 263 0
DWIDTH 8 0
BBX 9 8 0 0
BITMAP
060780
071480
035000
028000
028000
01C000
54A100
E02900
ENDCHAR
STARTCHAR y
ENCODING 121
SWIDTH 280 0
DWIDTH 9 0
BBX 15 16 -6 -8
BITMAP
00002408
0000A028
00009034
0000C0B0
000281A0
000241D0
00024580
0002D240
00000300
00000600
10000800
50001800
90002000
A0008000
74020000
1AA40000
ENDCHAR
STARTCHAR z
ENCODING 122
SWIDTH 238 0
DWIDTH 8 0
BBX 8 8 0 0
BITMAP
0BEA
1418
0010
0140
0500
1404
6414
9BE0
ENDCHAR
STARTCHAR braceleft
ENCODING 123
SWIDTH 291 0
DWIDTH 9 0
BBX 10 23 2 -3
BITMAP
000290
000D00
002400
003000
006000
006000
00A000
009000
00D000
018000
060000
2D0000
0B0000
070000
060000
090000
0C0000
280000
340000
700000
700000
340000
1A4000
ENDCHAR
STARTCHAR bar
ENCODING 124
SWIDTH 162 0
DWIDTH 5 0
BBX 2 29 2 -8
BITMAP
50
50
50
50
50
50
50
50
50
50
50
50
50
50
50
50
50
50
50
50
50
50
50
50
50
50
50
50
50
ENDCHAR
STARTCHAR braceright
ENCODING 125
SWIDTH 285 0
DWIDTH 9 0
BBX 10 23 0 -3
BITMAP
000A40
0000D0
0000A0
0000A0
0000D0
0001C0
000280
000300
000600
000A00
000A00
000280
000640
001800
002400
003000
007000
007000
006000
00A000
00D000
028000
690000
ENDCHAR
STARTCHAR asciitilde
ENCODING 126
SWIDTH 383 0
DWIDTH 12 0
BBX 9 2 2 4
BITMAP
2F9080
41BE00
ENDCHAR
STARTCHAR space.dup1
ENCODING 160
SWIDTH 150 0
DWIDTH 5 0
BBX 1 1 0 0
BITMAP
00
ENDCHAR
STARTCHAR exclamdown
ENCODING 161
SWIDTH 189 0
DWIDTH 6 0
BBX 9 17 -3 -9
BITMAP
000180
000340
000000
000000
000800
001400
002000
006000
008000
008000
024000
030000
0A0000
0D0000
1C0000
380000
600000
ENDCHAR
STARTCHAR cent
ENCODING 162
SWIDTH 194 0
DWIDTH 6 0
BBX 7 14 0 -2
BITMAP
0004
0020
0074
0498
1080
2240
6300
6600
7900
2800
1000
1000
5000
8000
ENDCHAR
STARTCHAR sterling
ENCODING 163
SWIDTH 344 0
DWIDTH 11 0
BBX 11 10 0 0
BITMAP
0001B4
000528
001404
002000
007540
01A000
009000
008000
5BD010
A56F80
ENDCHAR
STARTCHAR currency
ENCODING 164
SWIDTH 344 0
DWIDTH 11 0
BBX 11 10 0 0
BITMAP
020018
02BEA0
0141C0
050080
080090
080080
080180
054200
140100
500040
ENDCHAR
STARTCHAR yen
ENCODING 165
SWIDTH 309 0
DWIDTH 10 0
BBX 10 10 1 0
BITMAP
680690
091400
060000
060000
6BF400
060000
090000
AFE000
0C0000
1D0000
ENDCHAR
STARTCHAR brokenbar
ENCODING 166
SWIDTH 162 0
DWIDTH 5 0
BBX 2 29 2 -8
BITMAP
50
50
50
50
50
50
50
50
50
50
40
00
00
00
00
00
00
00
40
50
50
50
50
50
50
50
50
50
50
ENDCHAR
STARTCHAR section
ENCODING 167
SWIDTH 395 0
DWIDTH 13 0
BBX 17 25 -2 -8
BITMAP
0000005900
00000B9B80
00005801C0
00009400C0
0002200080
0003300000
0006300000
0006240000
0006280000
0007180000
00071C0000
00034D0000
0002890000
00028A0000
0001C70000
0000D70000
0000930000
0000A30000
0400630000
2000660000
6000650000
A000980000
7400A40000
2E57900000
06A9000000
ENDCHAR
STARTCHAR dieresis
ENCODING 168
SWIDTH 174 0
DWIDTH 6 0
BBX 5 2 0 10
BITMAP
2180
6240
ENDCHAR
STARTCHAR copyright
ENCODING 169
SWIDTH 331 0
DWIDTH 11 0
BBX 8 8 2 4
BITMAP
02A0
1818
52A6
8812
9401
9801
8A44
1010
ENDCHAR
STARTCHAR ordfeminine
ENCODING 170
SWIDTH 226 0
DWIDTH 7 0
BBX 4 4 2 6
BITMAP
1A
85
84
89
ENDCHAR
STARTCHAR guillemotleft
ENCODING 171
SWIDTH 289 0
DWIDTH 9 0
BBX 10 8 0 0
BITMAP
0014A0
008340
061D00
14B000
74E000
1DBC00
0B2E00
024E00
ENDCHAR
STARTCHAR logicalnot
ENCODING 172
SWIDTH 265 0
DWIDTH 8 0
BBX 8 4 0 4
BITMAP
7FFE
0009
000C
0028
ENDCHAR
STARTCHAR registered
ENCODING 174
SWIDTH 331 0
DWIDTH 11 0
BBX 8 8 2 4
BITMAP
06A4
2409
5692
8552
8941
8945
9094
2550
ENDCHAR
STARTCHAR degree
ENCODING 176
SWIDTH 104 0
DWIDTH 3 0
BBX 4 4 2 9
BITMAP
2D
56
41
28
ENDCHAR
STARTCHAR plusminus
ENCODING 177
SWIDTH 301 0
DWIDTH 10 0
BBX 9 8 0 0
BITMAP
001800
002000
002000
0FFF80
009000
008000
004000
6AA800
ENDCHAR
STARTCHAR twosuperior
ENCODING 178
SWIDTH 215 0
DWIDTH 7 0
BBX 5 5 1 5
BITMAP
0680
0480
0140
0500
6A40
ENDCHAR
STARTCHAR threesuperior
ENCODING 179
SWIDTH 190 0
DWIDTH 6 0
BBX 4 5 1 5
BITMAP
06
02
06
02
55
ENDCHAR
STARTCHAR acute
ENCODING 180
SWIDTH 157 0
DWIDTH 5 0
BBX 4 3 1 10
BITMAP
1D
34
40
ENDCHAR
STARTCHAR mu
ENCODING 181
SWIDTH 324 0
DWIDTH 10 0
BBX 11 13 -1 -5
BITMAP
002418
006024
00C060
028090
0341D0
0744C0
0A54D4
1990A0
240000
340000
300000
700000
500000
ENDCHAR
STARTCHAR paragraph
ENCODING 182
SWIDTH 392 0
DWIDTH 13 0
BBX 17 18 -3 -8
BITMAP
0000015E40
00001F1C00
0000BE2800
0003FD2400
000BFD3000
000FFC6000
000FF8A000
000FF4D000
0007F1C000
0001E28000
0000534000
0000860000
0000890000
1001580000
9002340000
D005900000
A01A400000
2EA4000000
ENDCHAR
STARTCHAR periodcentered
ENCODING 183
SWIDTH 112 0
DWIDTH 4 0
BBX 2 2 1 4
BITMAP
A0
D0
ENDCHAR
STARTCHAR cedilla
ENCODING 184
SWIDTH 115 0
DWIDTH 4 0
BBX 2 4 1 -4
BITMAP
10
60
10
40
ENDCHAR
STARTCHAR onesuperior
ENCODING 185
SWIDTH 174 0
DWIDTH 6 0
BBX 4 5 1 5
BITMAP
2E
08
14
20
60
ENDCHAR
STARTCHAR ordmasculine
ENCODING 186
SWIDTH 178 0
DWIDTH 6 0
BBX 4 4 1 6
BITMAP
1A
12
51
50
ENDCHAR
STARTCHAR guillemotright
ENCODING 187
SWIDTH 276 0
DWIDTH 9 0
BBX 9 8 -1 0
BITMAP
0A1800
074D00
01C740
00A1C0
008240
050800
146000
514000
ENDCHAR
STARTCHAR onequarter
ENCODING 188
SWIDTH 435 0
DWIDTH 14 0
BBX 11 12 2 -1
BITMAP
000024
060050
1A0140
080600
180808
202024
608070
924490
051BD0
140180
600140
800000
ENDCHAR
STARTCHAR onehalf
ENCODING 189
SWIDTH 434 0
DWIDTH 14 0
BBX 12 12 2 -1
BITMAP
000024
060050
160140
080600
180864
20214D
208108
924018
050050
140500
201AA0
800000
ENDCHAR
STARTCHAR threequarters
ENCODING 190
SWIDTH 476 0
DWIDTH 15 0
BBX 14 13 1 -2
BITMAP
00000140
05900600
04900800
01802000
05D08050
00924180
40850640
25141200
00609A40
00800C00
02001800
09000000
04000000
ENDCHAR
STARTCHAR questiondown
ENCODING 191
SWIDTH 285 0
DWIDTH 9 0
BBX 11 17 -2 -9
BITMAP
000018
000024
000000
000000
0002C0
0000C0
000240
000900
009000
060000
140000
700000
600000
A00100
740800
2FA000
050000
ENDCHAR
STARTCHAR Agrave
ENCODING 192
SWIDTH 996 0
DWIDTH 32 0
BBX 31 25 1 0
BITMAP
0000000000000100
0000000000000280
0000000000000064
0000000000000000
000000000AFFA400
0000000064016FE4
00000001400001BC
00000001000000B4
0000000400000350
0000000400001D80
0000000400006140
0000000000018200
0000000000060200
0000000000080500
0000000000200800
0000000000800C00
00000002FFFFF800
0000000005001800
1000000014002800
2000000090002800
6000000240002800
6000001800002800
3800019000002804
2F55690000001EA0
06FE900000000B80
ENDCHAR
STARTCHAR Aacute
ENCODING 193
SWIDTH 996 0
DWIDTH 32 0
BBX 32 25 1 0
BITMAP
0000000000000004
000000000000001E
0000000000000090
0000000000000000
000000000AFFA400
0000000064016FE4
00000001400001BC
00000001000000B4
0000000400000350
0000000400001D80
0000000400006140
0000000000018200
0000000000060200
0000000000080500
0000000000200800
0000000000800C00
00000002FFFFF800
0000000005001800
1000000014002800
2000000090002800
6000000240002800
6000001800002800
3800019000002804
2F55690000001EA0
06FE900000000B80
ENDCHAR
STARTCHAR Acircumflex
ENCODING 194
SWIDTH 996 0
DWIDTH 32 0
BBX 33 25 1 0
BITMAP
000000000000000400
000000000000002D00
000000000000019680
000000000000000000
000000000AFFA40000
0000000064016FE400
00000001400001BC00
00000001000000B400
000000040000035000
0000000400001D8000
000000040000614000
000000000001820000
000000000006020000
000000000008050000
000000000020080000
0000000000800C0000
00000002FFFFF80000
000000000500180000
100000001400280000
200000009000280000
600000024000280000
600000180000280000
380001900000280400
2F55690000001EA000
06FE900000000B8000
ENDCHAR
STARTCHAR Atilde
ENCODING 195
SWIDTH 996 0
DWIDTH 32 0
BBX 34 24 1 0
BITMAP
00000000000000A010
00000000000002FD80
000000000000021900
000000000AFFA40000
0000000064016FE400
00000001400001BC00
00000001000000B400
000000040000035000
0000000400001D8000
000000040000614000
000000000001820000
000000000006020000
000000000008050000
000000000020080000
0000000000800C0000
00000002FFFFF80000
000000000500180000
100000001400280000
200000009000280000
600000024000280000
600000180000280000
380001900000280400
2F55690000001EA000
06FE900000000B8000
ENDCHAR
STARTCHAR Adieresis
ENCODING 196
SWIDTH 996 0
DWIDTH 32 0
BBX 33 24 1 0
BITMAP
000000000000002140
000000000000006240
000000000000000000
000000000AFFA40000
0000000064016FE400
00000001400001BC00
00000001000000B400
000000040000035000
0000000400001D8000
000000040000614000
000000000001820000
000000000006020000
000000000008050000
000000000020080000
0000000000800C0000
00000002FFFFF80000
000000000500180000
100000001400280000
200000009000280000
600000024000280000
600000180000280000
380001900000280400
2F55690000001EA000
06FE900000000B8000
ENDCHAR
STARTCHAR Aring
ENCODING 197
SWIDTH 996 0
DWIDTH 32 0
BBX 32 25 1 0
BITMAP
0000000000000008
0000000000000011
0000000000000022
0000000000000014
000000000AFFA400
0000000064016FE4
00000001400001BC
00000001000000B4
0000000400000350
0000000400001D80
0000000400006140
0000000000018200
0000000000060200
0000000000080500
0000000000200800
0000000000800C00
00000002FFFFF800
0000000005001800
1000000014002800
2000000090002800
6000000240002800
6000001800002800
3800019000002804
2F55690000001EA0
06FE900000000B80
ENDCHAR
STARTCHAR AE
ENCODING 198
SWIDTH 1271 0
DWIDTH 41 0
BBX 42 21 1 0
BITMAP
000000000AFFA40005AA40
0000000064016FE42002D0
00000001400001BC900080
00000001000000B5C00040
0000000400000361C00000
0000000400001D51D00000
0000000400007480B40000
00000000000181407E0000
000000000006024A540000
0000000000080360000000
0000000000200780000000
0000000000800700000000
00000001FFFFFE00000000
0000000005000900000000
1000000014000900000000
2000000090000D00000400
6000000240000E00000800
6000001800000A00000800
3800019000000740002400
2F956D00000002D001A000
06FE90000000006AA90000
ENDCHAR
STARTCHAR Ccedilla
ENCODING 199
SWIDTH 557 0
DWIDTH 18 0
BBX 18 24 2 -3
BITMAP
00005AAE80
00054001F0
0024000030
0080000010
0200000000
0900000000
1C00000000
2800000000
3400000000
7000000000
B000000000
B000000000
B000000000
B000000000
B400000000
7800000500
2C00000800
0E00001800
0280007400
006406E000
0000950000
0000800000
0000800000
0001000000
ENDCHAR
STARTCHAR Egrave
ENCODING 200
SWIDTH 463 0
DWIDTH 15 0
BBX 16 24 1 0
BITMAP
00000B40
00000190
00000000
000056A4
0002001D
00080009
00180004
00280000
001D0000
000B8000
0007E000
00540000
01000000
08000000
20000000
60000000
A0000000
E0000000
E0000050
E0000080
B0000080
78000240
2E001A00
06AA9000
ENDCHAR
STARTCHAR Eacute
ENCODING 201
SWIDTH 463 0
DWIDTH 15 0
BBX 16 25 1 0
BITMAP
00000050
000001E0
00000500
00000000
000056A4
0002001D
00080009
00180004
00280000
001D0000
000B8000
0007E000
00540000
01000000
08000000
20000000
60000000
A0000000
E0000000
E0000050
E0000080
B0000080
78000240
2E001A00
06AA9000
ENDCHAR
STARTCHAR Ecircumflex
ENCODING 202
SWIDTH 463 0
DWIDTH 15 0
BBX 16 25 1 0
BITMAP
00000100
00000780
000024A0
00000000
000056A4
0002001D
00080009
00180004
00280000
001D0000
000B8000
0007E000
00540000
01000000
08000000
20000000
60000000
A0000000
E0000000
E0000050
E0000080
B0000080
78000240
2E001A00
06AA9000
ENDCHAR
STARTCHAR Edieresis
ENCODING 203
SWIDTH 463 0
DWIDTH 15 0
BBX 16 24 1 0
BITMAP
00000520
00000960
00000000
000056A4
0002001D
00080009
00180004
00280000
001D0000
000B8000
0007E000
00540000
01000000
08000000
20000000
60000000
A0000000
E0000000
E0000050
E0000080
B0000080
78000240
2E001A00
06AA9000
ENDCHAR
STARTCHAR Igrave
ENCODING 204
SWIDTH 514 0
DWIDTH 16 0
BBX 23 24 0 0
BITMAP
000000004000
000000006400
000000000000
0000000006B4
000000007E80
000000029100
0000001D0800
000000201800
000000802400
000001403000
000002006000
000004009000
00000400C000
000004018000
000004024000
000004030000
000004050000
050001090000
140000640000
600000600000
A00001800000
B00005000000
390164000000
0BFA40000000
ENDCHAR
STARTCHAR Iacute
ENCODING 205
SWIDTH 514 0
DWIDTH 16 0
BBX 23 24 0 0
BITMAP
000000000740
000000002800
000000000000
0000000006B4
000000007E80
000000029100
0000001D0800
000000201800
000000802400
000001403000
000002006000
000004009000
00000400C000
000004018000
000004024000
000004030000
000004050000
050001090000
140000640000
600000600000
A00001800000
B00005000000
390164000000
0BFA40000000
ENDCHAR
STARTCHAR Icircumflex
ENCODING 206
SWIDTH 514 0
DWIDTH 16 0
BBX 23 24 0 0
BITMAP
000000001F40
0000000061D0
000000000000
0000000006B4
000000007E80
000000029100
0000001D0800
000000201800
000000802400
000001403000
000002006000
000004009000
00000400C000
000004018000
000004024000
000004030000
000004050000
050001090000
140000640000
600000600000
A00001800000
B00005000000
390164000000
0BFA40000000
ENDCHAR
STARTCHAR Idieresis
ENCODING 207
SWIDTH 514 0
DWIDTH 16 0
BBX 23 24 0 0
BITMAP
000000001480
000000002580
000000000000
0000000006B4
000000007E80
000000029100
0000001D0800
000000201800
000000802400
000001403000
000002006000
000004009000
00000400C000
000004018000
000004024000
000004030000
000004050000
050001090000
140000640000
600000600000
A00001800000
B00005000000
390164000000
0BFA40000000
ENDCHAR
STARTCHAR Eth
ENCODING 208
SWIDTH 800 0
DWIDTH 26 0
BBX 25 22 1 0
BITMAP
00000000004000
00006BE9090000
0006001BE00000
00140001F80000
005000035E0000
0040000A02C000
0040000C00E000
00000028007400
00000034002C00
00000070000D00
000000A0000B00
000000D0000700
00001BFFC00340
00009680000340
00000340000340
00000700000340
00000900000300
00001800000200
05503000000400
25AFD000000400
C006A900004000
AA5005AA950000
ENDCHAR
STARTCHAR Ntilde
ENCODING 209
SWIDTH 796 0
DWIDTH 25 0
BBX 40 24 -5 0
BITMAP
0000000000000E010000
0000000000002F980000
00000000000051900000
000001BE4000000001B8
00000906F6000000079D
000020001F0000001D02
00000000078000002000
0000000006E000009000
00000000097400018000
00000000082D00020000
00000000080A00010000
00000000140740080000
000000002002C0080000
000000002000D0140000
040000005000B0200000
14000000800074100000
20000001400028500000
5000000200001C400000
9000000500000D800000
A000001400000A400000
74000060000007400000
2D000280000003400000
0FE5AD00000002400000
01BF9000000001400000
ENDCHAR
STARTCHAR Ograve
ENCODING 210
SWIDTH 608 0
DWIDTH 19 0
BBX 19 24 2 0
BITMAP
00000E0000
0000019000
0000000000
00006BF800
0002501F40
00140002D0
00500000B0
0140000074
0100000038
0800000028
180000001C
240000001C
3000000018
6000000028
A000000024
A000000030
A000000060
B000000080
7000000140
7800000200
2D00000800
0F40005000
07E4064000
006FE40000
ENDCHAR
STARTCHAR Oacute
ENCODING 211
SWIDTH 608 0
DWIDTH 19 0
BBX 19 25 2 0
BITMAP
0000001000
000001E000
0000060000
0000000000
00006BF800
0002501F40
00140002D0
00500000B0
0140000074
0100000038
0800000028
180000001C
240000001C
3000000018
6000000028
A000000024
A000000030
A000000060
B000000080
7000000140
7800000200
2D00000800
0F40005000
07E4064000
006FE40000
ENDCHAR
STARTCHAR Ocircumflex
ENCODING 212
SWIDTH 608 0
DWIDTH 19 0
BBX 19 25 2 0
BITMAP
0000004000
000002A000
0000042800
0000000000
00006BF800
0002501F40
00140002D0
00500000B0
0140000074
0100000038
0800000028
180000001C
240000001C
3000000018
6000000028
A000000024
A000000030
A000000060
B000000080
7000000140
7800000200
2D00000800
0F40005000
07E4064000
006FE40000
ENDCHAR
STARTCHAR Otilde
ENCODING 213
SWIDTH 608 0
DWIDTH 19 0
BBX 19 24 2 0
BITMAP
00000B4100
00001AE800
0000100000
00006BF800
0002501F40
00140002D0
00500000B0
0140000074
0100000038
0800000028
180000001C
240000001C
3000000018
6000000028
A000000024
A000000030
A000000060
B000000080
7000000140
7800000200
2D00000800
0F40005000
07E4064000
006FE40000
ENDCHAR
STARTCHAR Odieresis
ENCODING 214
SWIDTH 608 0
DWIDTH 19 0
BBX 19 24 2 0
BITMAP
0000021400
0000062400
0000000000
00006BF800
0002501F40
00140002D0
00500000B0
0140000074
0100000038
0800000028
180000001C
240000001C
3000000018
6000000028
A000000024
A000000030
A000000060
B000000080
7000000140
7800000200
2D00000800
0F40005000
07E4064000
006FE40000
ENDCHAR
STARTCHAR multiply
ENCODING 215
SWIDTH 301 0
DWIDTH 10 0
BBX 7 7 2 1
BITMAP
1418
0860
0980
0600
0A00
2180
8080
ENDCHAR
STARTCHAR Oslash
ENCODING 216
SWIDTH 605 0
DWIDTH 19 0
BBX 19 23 2 -1
BITMAP
0000000040
00006BE540
0006501F40
0014000BD0
00400025E0
01000060B4
0500008038
0800020028
1400090028
2000180028
3000200028
6000900028
A001400024
A006000030
A008000050
B024000080
B460000140
7880000200
2F00000400
1F40005000
0BE4064000
20AFE40000
1000000000
ENDCHAR
STARTCHAR Ugrave
ENCODING 217
SWIDTH 717 0
DWIDTH 23 0
BBX 25 24 1 0
BITMAP
00000000400000
00000001B40000
00000000190000
001BFA40000280
019016D0000700
05000140000A00
14000900001C00
10001400002800
40006000003000
4000800000A000
4001400000D000
4003000002C000
40060000038000
400C00000B4000
001C00001B0000
002800002A0000
002400005D0000
003400008C0000
003400021C0000
00340005180000
00340014280000
00380050281400
002D06401E9000
000BE4000F4000
ENDCHAR
STARTCHAR Uacute
ENCODING 218
SWIDTH 717 0
DWIDTH 23 0
BBX 25 24 1 0
BITMAP
00000000014000
00000000074000
00000000240000
001BFA40000280
019016D0000700
05000140000A00
14000900001C00
10001400002800
40006000003000
4000800000A000
4001400000D000
4003000002C000
40060000038000
400C00000B4000
001C00001B0000
002800002A0000
002400005D0000
003400008C0000
003400021C0000
00340005180000
00340014280000
00380050281400
002D06401E9000
000BE4000F4000
ENDCHAR
STARTCHAR Ucircumflex
ENCODING 219
SWIDTH 718 0
DWIDTH 23 0
BBX 25 24 1 0
BITMAP
000000000C0000
000000002A0000
00000001428000
001BFA40000280
019016D0000700
05000140000A00
14000900001C00
10001400002800
40006000003000
4000800000A000
4001400000D000
4003000002C000
40060000038000
400C00000B4000
001C00001B0000
002800002A0000
002400005D0000
003400008C0000
003400021C0000
00340005180000
00340014280000
00380050281400
002D06401E9000
000BE4000F4000
ENDCHAR
STARTCHAR Udieresis
ENCODING 220
SWIDTH 718 0
DWIDTH 23 0
BBX 25 24 1 0
BITMAP
00000000620000
00000000920000
00000000000000
001BFA40000280
019016D0000700
05000140000A00
14000900001C00
10001400002800
40006000003000
4000800000A000
4001400000D000
4003000002C000
40060000038000
400C00000B4000
001C00001B0000
002800002A0000
002400005D0000
003400008C0000
003400021C0000
00340005180000
00340014280000
00380050281400
002D06401E9000
000BE4000F4000
ENDCHAR
STARTCHAR Yacute
ENCODING 221
SWIDTH 662 0
DWIDTH 21 0
BBX 28 27 0 -4
BITMAP
00000000002C00
00000000019000
000000B8000006
0000051C00000D
0000041C00001C
0000001C000034
00000028000070
000000340000D0
000000700002C0
00000060000340
00000090000B00
000000C0001D00
00000180002800
0000028000A400
00040240016000
00540340058000
05000340154000
14000381920000
200001F9080000
60000000140000
90000000100000
A0000000800000
A0000001000000
70000004000000
38000050000000
1F401A40000000
02FF9000000000
ENDCHAR
STARTCHAR Thorn
ENCODING 222
SWIDTH 745 0
DWIDTH 24 0
BBX 24 22 1 0
BITMAP
000000000014
000000000080
000000000200
000000000900
000000000C00
00000006BF90
0000001435B4
00000080701D
00000100A00A
00000100D007
00000001C007
000000028007
00000003400A
04000007000D
100000090024
1000001C0190
500000255500
500000600000
600000800000
340002000000
1E4068000000
02FE40000000
ENDCHAR
STARTCHAR germandbls
ENCODING 223
SWIDTH 304 0
DWIDTH 10 0
BBX 28 31 -11 -8
BITMAP
00000000000168
0000000000000B
00000000000007
00000000010007
0000000004000A
0000000010000D
00000000100028
000000005000A0
00000000800740
00000001402D00
0000000200A000
00000002074000
000000091D0000
00000008340000
0000000C700000
00000018600000
00000024600000
00000030240000
00000060180000
00000090090000
000000C0060000
00000181090000
00000247F80000
00000200000000
00000500000000
00000800000000
00001400000000
00002000000000
40008000000000
60050000000000
2FA40000000000
ENDCHAR
STARTCHAR agrave
ENCODING 224
SWIDTH 294 0
DWIDTH 9 0
BBX 8 13 1 0
BITMAP
0010
0074
0009
0000
0000
02FA
091D
3408
6024
D070
D0B0
E671
7434
ENDCHAR
STARTCHAR aacute
ENCODING 225
SWIDTH 294 0
DWIDTH 9 0
BBX 8 13 1 0
BITMAP
0007
000D
0010
0000
0000
02FA
091D
3408
6024
D070
D0B0
E671
7434
ENDCHAR
STARTCHAR acircumflex
ENCODING 226
SWIDTH 294 0
DWIDTH 9 0
BBX 8 13 1 0
BITMAP
0028
005A
0000
0000
0000
02FA
091D
3408
6024
D070
D0B0
E671
7434
ENDCHAR
STARTCHAR atilde
ENCODING 227
SWIDTH 294 0
DWIDTH 9 0
BBX 9 12 1 0
BITMAP
01E140
012E00
000000
000000
02FA00
091D00
340800
602400
D07000
D0B000
E67100
743400
ENDCHAR
STARTCHAR adieresis
ENCODING 228
SWIDTH 284 0
DWIDTH 9 0
BBX 8 12 1 0
BITMAP
0096
0186
0000
0000
02FA
091D
3408
6024
D070
D0B0
E671
7434
ENDCHAR
STARTCHAR aring
ENCODING 229
SWIDTH 294 0
DWIDTH 9 0
BBX 8 13 1 0
BITMAP
0028
0058
0058
0074
0000
02FA
091D
3408
6024
D070
D0B0
E671
7434
ENDCHAR
STARTCHAR ae
ENCODING 230
SWIDTH 363 0
DWIDTH 12 0
BBX 11 9 1 0
BITMAP
000200
016AB4
141C28
202860
503940
907400
C17400
D53810
B41E40
ENDCHAR
STARTCHAR ccedilla
ENCODING 231
SWIDTH 203 0
DWIDTH 7 0
BBX 6 12 1 -4
BITMAP
0090
1050
1000
5000
D000
C040
D140
7C00
1000
2000
2000
5000
ENDCHAR
STARTCHAR egrave
ENCODING 232
SWIDTH 206 0
DWIDTH 7 0
BBX 6 13 1 0
BITMAP
0100
02C0
0060
0000
0000
06D0
10A0
2180
6400
D000
D000
E040
7900
ENDCHAR
STARTCHAR eacute
ENCODING 233
SWIDTH 206 0
DWIDTH 7 0
BBX 7 13 1 0
BITMAP
0028
0060
0040
0000
0000
06D0
10A0
2180
6400
D000
D000
E040
7900
ENDCHAR
STARTCHAR ecircumflex
ENCODING 234
SWIDTH 206 0
DWIDTH 7 0
BBX 7 13 1 0
BITMAP
0280
0574
0000
0000
0000
06D0
10A0
2180
6400
D000
D000
E040
7900
ENDCHAR
STARTCHAR edieresis
ENCODING 235
SWIDTH 206 0
DWIDTH 7 0
BBX 7 12 1 0
BITMAP
0218
0624
0000
0000
06D0
10A0
2180
6400
D000
D000
E040
7900
ENDCHAR
STARTCHAR igrave
ENCODING 236
SWIDTH 149 0
DWIDTH 5 0
BBX 5 13 1 0
BITMAP
0400
1E00
0140
0000
0000
0900
1800
2400
3000
6000
9000
D400
A400
ENDCHAR
STARTCHAR iacute
ENCODING 237
SWIDTH 149 0
DWIDTH 5 0
BBX 6 13 1 0
BITMAP
00A0
01D0
0100
0000
0000
0900
1800
2400
3000
6000
9000
D400
A400
ENDCHAR
STARTCHAR icircumflex
ENCODING 238
SWIDTH 149 0
DWIDTH 5 0
BBX 6 13 1 0
BITMAP
0740
15D0
0000
0000
0000
0900
1800
2400
3000
6000
9000
D400
A400
ENDCHAR
STARTCHAR idieresis
ENCODING 239
SWIDTH 149 0
DWIDTH 5 0
BBX 6 12 1 0
BITMAP
0920
0C60
0000
0000
0900
1800
2400
3000
6000
9000
D400
A400
ENDCHAR
STARTCHAR eth
ENCODING 240
SWIDTH 234 0
DWIDTH 7 0
BBX 6 21 1 0
BITMAP
2000
5000
9000
7000
3800
1D40
0B00
2640
41C0
0090
0060
0020
0030
0070
1020
2020
5020
9050
D080
E240
7900
ENDCHAR
STARTCHAR ntilde
ENCODING 241
SWIDTH 291 0
DWIDTH 9 0
BBX 10 12 0 0
BITMAP
007850
004B80
000000
000000
0B0780
171280
064300
0A0600
0D0900
180C00
240C40
600E00
ENDCHAR
STARTCHAR ograve
ENCODING 242
SWIDTH 225 0
DWIDTH 7 0
BBX 7 13 1 0
BITMAP
0040
01D0
0024
0000
0000
07D0
14A0
2060
9060
C050
C080
D200
7800
ENDCHAR
STARTCHAR oacute
ENCODING 243
SWIDTH 225 0
DWIDTH 7 0
BBX 7 13 1 0
BITMAP
0028
0074
0040
0000
0000
07D0
14A0
2060
9060
C050
C080
D200
7800
ENDCHAR
STARTCHAR ocircumflex
ENCODING 244
SWIDTH 225 0
DWIDTH 7 0
BBX 8 13 1 0
BITMAP
00A0
016D
0000
0000
0000
07D0
14A0
2060
9060
C050
C080
D200
7800
ENDCHAR
STARTCHAR otilde
ENCODING 245
SWIDTH 225 0
DWIDTH 7 0
BBX 8 12 1 0
BITMAP
0785
04B8
0000
0000
07D0
14A0
2060
9060
C050
C080
D200
7800
ENDCHAR
STARTCHAR odieresis
ENCODING 246
SWIDTH 225 0
DWIDTH 7 0
BBX 7 12 1 0
BITMAP
0218
0624
0000
0000
07D0
14A0
2060
9060
C050
C080
D200
7800
ENDCHAR
STARTCHAR divide
ENCODING 247
SWIDTH 301 0
DWIDTH 10 0
BBX 7 5 2 2
BITMAP
0240
0000
AAA4
0000
0800
ENDCHAR
STARTCHAR oslash
ENCODING 248
SWIDTH 225 0
DWIDTH 7 0
BBX 8 10 0 -1
BITMAP
0001
01B8
0528
0858
2558
3114
3820
3880
2E00
4000
ENDCHAR
STARTCHAR ugrave
ENCODING 249
SWIDTH 299 0
DWIDTH 10 0
BBX 8 13 1 0
BITMAP
0010
0078
0005
0000
0000
0902
2809
241C
6028
A064
9124
D535
B42D
ENDCHAR
STARTCHAR uacute
ENCODING 250
SWIDTH 299 0
DWIDTH 10 0
BBX 9 13 1 0
BITMAP
000740
000A00
001400
000000
000000
090200
280900
241C00
602800
A06400
912400
D53500
B42D00
ENDCHAR
STARTCHAR ucircumflex
ENCODING 251
SWIDTH 299 0
DWIDTH 10 0
BBX 9 13 1 0
BITMAP
002800
005B40
000000
000000
000000
090200
280900
241C00
602800
A06400
912400
D53500
B42D00
ENDCHAR
STARTCHAR udieresis
ENCODING 252
SWIDTH 299 0
DWIDTH 10 0
BBX 8 12 1 0
BITMAP
0092
00C6
0000
0000
0902
2809
241C
6028
A064
9124
D535
B42D
ENDCHAR
STARTCHAR yacute
ENCODING 253
SWIDTH 280 0
DWIDTH 9 0
BBX 16 21 -6 -8
BITMAP
0000000E
00000028
00000050
00000000
00000000
00002408
0000A028
00009034
0000C0B0
000281A0
000241D0
00024580
0002D240
00000300
00000600
10000800
50001800
90002000
A0008000
74020000
1AA40000
ENDCHAR
STARTCHAR thorn
ENCODING 254
SWIDTH 261 0
DWIDTH 8 0
BBX 9 24 -1 -8
BITMAP
000100
000740
000200
000900
000C00
001800
002000
006000
009680
0081C0
0140C0
020180
020240
090200
0D1900
1FE000
240000
200000
200000
500000
900000
C00000
C00000
E40000
ENDCHAR
STARTCHAR ydieresis
ENCODING 255
SWIDTH 280 0
DWIDTH 9 0
BBX 15 20 -6 -8
BITMAP
00000248
00000318
00000000
00000000
00002408
0000A028
00009034
0000C0B0
000281A0
000241D0
00024580
0002D240
00000300
00000600
10000800
50001800
90002000
A0008000
74020000
1AA40000
ENDCHAR
STARTCHAR dotlessi
ENCODING 305
SWIDTH 149 0
DWIDTH 5 0
BBX 4 8 1 0
BITMAP
09
18
24
30
60
90
D4
A4
ENDCHAR
STARTCHAR Lslash
ENCODING 321
SWIDTH 657 0
DWIDTH 21 0
BBX 22 21 1 0
BITMAP
000000001BE0
000000005070
000000010020
000000040020
000000140010
000000200000
000000500000
000000800000
000000954000
000002E40000
000067400000
000003000000
000006000000
000009000000
00000C000000
000018000000
000024000000
16A960000100
8007D0000400
E0196E402400
7F9006FF9000
ENDCHAR
STARTCHAR lslash
ENCODING 322
SWIDTH 134 0
DWIDTH 4 0
BBX 15 24 1 0
BITMAP
000002F0
00001A64
00002000
00008000
00020000
00050000
00040000
00100000
00100000
00940000
06900000
16000000
02000000
05000000
08000000
18000000
24000000
30000000
60000000
60000000
90000000
D0000000
D1000000
A4000000
ENDCHAR
STARTCHAR OE
ENCODING 338
SWIDTH 827 0
DWIDTH 26 0
BBX 26 21 2 0
BITMAP
00006FF8016A80
0006501F5400B0
00140002E00020
00400000D00010
01400000D00000
05000000B00000
080000003D0000
140000001F4000
20000001400000
30000014000000
60000050000000
A0000080000000
A0000240000000
A0000340000000
A0000740000000
B0000740000100
74000740000200
2C000380000500
1F4002D0001C00
07E406B4007400
00AFE41AAA4000
ENDCHAR
STARTCHAR oe
ENCODING 339
SWIDTH 345 0
DWIDTH 11 0
BBX 10 8 1 0
BITMAP
06D2E0
14A470
107090
907500
C06000
C0E000
D2B040
782E00
ENDCHAR
STARTCHAR Scaron
ENCODING 352
SWIDTH 480 0
DWIDTH 15 0
BBX 16 25 1 0
BITMAP
00000101
00000289
000000A0
00000000
000007F4
0000296D
0000500A
0000C006
0000C005
0000C000
0000A000
00007000
00002800
00000D00
00000700
00000280
000001C0
040000A0
140000A0
30000060
60000050
70000080
38000140
1E400500
02FA9000
ENDCHAR
STARTCHAR scaron
ENCODING 353
SWIDTH 188 0
DWIDTH 6 0
BBX 6 13 0 0
BITMAP
0240
0080
0000
0000
0000
0660
0910
0900
0700
0280
41C0
8180
9600
ENDCHAR
STARTCHAR Ydieresis
ENCODING 376
SWIDTH 662 0
DWIDTH 21 0
BBX 28 28 0 -4
BITMAP
00000000021400
00000000063000
00000000000000
000000B8000006
0000051C00000D
0000041C00001C
0000001C000034
00000028000070
000000340000D0
000000700002C0
00000060000340
00000090000B00
000000C0001D00
00000180002800
0000028000A400
00040240016000
00540340058000
05000340154000
14000381920000
200001F9080000
60000000140000
90000000100000
A0000000800000
A0000001000000
70000004000000
38000050000000
1F401A40000000
02FF9000000000
ENDCHAR
STARTCHAR Zcaron
ENCODING 381
SWIDTH 625 0
DWIDTH 20 0
BBX 22 25 1 0
BITMAP
000000140400
0000000A6000
000000028000
000000000000
00001BFE4000
00006405B850
000080001BC0
000140000600
000100001800
000000006000
000000018000
000000060000
000000180000
000000A00000
000002800000
000009000000
000024000000
000090000000
000240000000
000900000000
003400000400
01D000001000
074000005000
1FE940064000
6016BFE90000
ENDCHAR
STARTCHAR zcaron
ENCODING 382
SWIDTH 248 0
DWIDTH 8 0
BBX 8 13 0 0
BITMAP
0090
0020
0000
0000
0000
0BEA
1418
0050
0140
0500
1404
6414
9BE0
ENDCHAR
STARTCHAR florin
ENCODING 402
SWIDTH 214 0
DWIDTH 7 0
BBX 11 13 -3 -3
BITMAP
0000B8
000248
000500
000C00
001800
00BF90
002400
003000
006000
009000
008000
020000
680000
ENDCHAR
STARTCHAR circumflex
ENCODING 710
SWIDTH 196 0
DWIDTH 6 0
BBX 5 2 1 11
BITMAP
2C00
5740
ENDCHAR
STARTCHAR caron
ENCODING 711
SWIDTH 196 0
DWIDTH 6 0
BBX 2 2 1 11
BITMAP
90
20
ENDCHAR
STARTCHAR breve
ENCODING 728
SWIDTH 198 0
DWIDTH 6 0
BBX 6 2 0 11
BITMAP
5010
2400
ENDCHAR
STARTCHAR dotaccent
ENCODING 729
SWIDTH 89 0
DWIDTH 3 0
BBX 2 2 0 10
BITMAP
30
60
ENDCHAR
STARTCHAR ring
ENCODING 730
SWIDTH 117 0
DWIDTH 4 0
BBX 3 4 0 9
BITMAP
28
58
58
34
ENDCHAR
STARTCHAR ogonek
ENCODING 731
SWIDTH 124 0
DWIDTH 4 0
BBX 3 4 0 -4
BITMAP
14
20
50
24
ENDCHAR
STARTCHAR tilde
ENCODING 732
SWIDTH 222 0
DWIDTH 7 0
BBX 6 2 1 10
BITMAP
7450
5B40
ENDCHAR
STARTCHAR hungarumlaut
ENCODING 733
SWIDTH 253 0
DWIDTH 8 0
BBX 7 3 1 10
BITMAP
1D74
75E0
8240
ENDCHAR
STARTCHAR mu.dup2
ENCODING 956
SWIDTH 324 0
DWIDTH 10 0
BBX 11 13 -1 -5
BITMAP
002418
006024
00C060
028090
0341D0
0744C0
0A54D4
1990A0
240000
340000
300000
700000
500000
ENDCHAR
STARTCHAR endash
ENCODING 8211
SWIDTH 500 0
DWIDTH 16 0
BBX 16 1 0 4
BITMAP
7FFFFFFD
ENDCHAR
STARTCHAR emdash
ENCODING 8212
SWIDTH 1000 0
DWIDTH 32 0
BBX 32 1 0 4
BITMAP
7FFFFFFFFFFFFFFD
ENDCHAR
STARTCHAR quoteleft
ENCODING 8216
SWIDTH 87 0
DWIDTH 3 0
BBX 3 5 1 8
BITMAP
04
14
30
70
10
ENDCHAR
STARTCHAR quoteright
ENCODING 8217
SWIDTH 87 0
DWIDTH 3 0
BBX 3 5 2 8
BITMAP
34
24
20
50
40
ENDCHAR
STARTCHAR quotesinglbase
ENCODING 8218
SWIDTH 112 0
DWIDTH 4 0
BBX 2 3 1 -1
BITMAP
20
A0
40
ENDCHAR
STARTCHAR quotedblleft
ENCODING 8220
SWIDTH 167 0
DWIDTH 5 0
BBX 5 5 2 8
BITMAP
1440
5200
8600
CA00
8900
ENDCHAR
STARTCHAR quotedblright
ENCODING 8221
SWIDTH 167 0
DWIDTH 5 0
BBX 5 5 2 8
BITMAP
2580
35C0
2180
5200
4400
ENDCHAR
STARTCHAR quotedblbase
ENCODING 8222
SWIDTH 192 0
DWIDTH 6 0
BBX 6 4 0 -2
BITMAP
1890
18D0
2080
4100
ENDCHAR
STARTCHAR dagger
ENCODING 8224
SWIDTH 185 0
DWIDTH 6 0
BBX 7 19 1 -2
BITMAP
0050
0080
0180
0240
0200
0200
BFA8
0900
0800
0800
1400
2000
2000
1000
5000
8000
8000
4000
4000
ENDCHAR
STARTCHAR daggerdbl
ENCODING 8225
SWIDTH 185 0
DWIDTH 6 0
BBX 9 19 -1 -2
BITMAP
000500
000800
000800
002400
002000
002000
0BFF80
009000
008000
008000
014000
020000
020000
BFE800
050000
080000
080000
040000
140000
ENDCHAR
STARTCHAR bullet
ENCODING 8226
SWIDTH 207 0
DWIDTH 7 0
BBX 5 4 1 3
BITMAP
1F00
3F40
7F40
2E00
ENDCHAR
STARTCHAR ellipsis
ENCODING 8230
SWIDTH 376 0
DWIDTH 12 0
BBX 10 2 1 0
BITMAP
A07070
D090A0
ENDCHAR
STARTCHAR perthousand
ENCODING 8240
SWIDTH 571 0
DWIDTH 18 0
BBX 18 14 0 -2
BITMAP
0000050000
0000080000
06D0200000
1460900000
2061400000
6052000000
60886D06D0
3E154614A0
0062062060
0086055040
0206086140
0502E03D00
0800000000
2000000000
ENDCHAR
STARTCHAR guilsinglleft
ENCODING 8249
SWIDTH 189 0
DWIDTH 6 0
BBX 7 8 0 0
BITMAP
0014
0080
0600
1400
7400
1D00
0B00
0240
ENDCHAR
STARTCHAR guilsinglright
ENCODING 8250
SWIDTH 176 0
DWIDTH 6 0
BBX 6 8 -1 0
BITMAP
0A00
0740
01C0
00A0
0080
0500
1400
5000
ENDCHAR
STARTCHAR fraction
ENCODING 8260
SWIDTH 220 0
DWIDTH 7 0
BBX 11 13 -1 -2
BITMAP
000008
000024
000090
000140
000500
001800
002000
008000
020000
090000
140000
600000
400000
ENDCHAR
STARTCHAR Euro
ENCODING 8364
SWIDTH 360 0
DWIDTH 12 0
BBX 10 10 0 0
BITMAP
000060
010020
050000
2FFC00
1C0000
6FF400
1C0000
1C0000
090100
020500
ENDCHAR
STARTCHAR trademark
ENCODING 8482
SWIDTH 389 0
DWIDTH 12 0
BBX 10 5 2 5
BITMAP
590850
201980
204980
515880
410040
ENDCHAR
STARTCHAR minus
ENCODING 8722
SWIDTH 301 0
DWIDTH 10 0
BBX 7 1 2 4
BITMAP
FFF8
ENDCHAR
STARTCHAR fi
ENCODING 64257
SWIDTH 297 0
DWIDTH 10 0
BBX 27 32 -10 -8
BITMAP
000000000006F0
00000000002568
00000000008008
00000000010000
00000000050000
00000000080000
00000000200000
00000000600000
00000000800000
00000000800000
00000002400000
00000003000000
00000006004000
00000009014000
0000000C020000
00000018000000
000001FFFD0000
00000134180000
00000070200000
000000A0600000
000000D0900000
00000180C00000
00000240C40000
00000300E00000
00000900000000
00000C00000000
00001400000000
00002000000000
00008000000000
10010000000000
60040000000000
2A900000000000
ENDCHAR
STARTCHAR fl
ENCODING 64258
SWIDTH 290 0
DWIDTH 9 0
BBX 31 32 -10 -8
BITMAP
00000000000002F0
00000000001FDA64
0000000000906000
0000000002004000
0000000004010000
0000000018040000
0000000020040000
0000000060100000
0000000080100000
0000000180400000
0000000240400000
0000000301000000
0000000602000000
0000000905000000
0000000C08000000
0000002808000000
000001FFF4000000
0000013020000000
0000006020000000
0000009060000000
000000C090000000
00000180D1000000
00000240E4000000
00000300A0000000
0000090000000000
0000080000000000
0000240000000000
0000200000000000
0000800000000000
1001000000000000
6004000000000000
2A90000000000000
ENDCHAR
STARTCHAR .notdef
ENCODING -1
SWIDTH 150 0
DWIDTH 5 0
BBX 1 1 0 0
BITMAP
00
ENDCHAR
STARTCHAR .null
ENCODING -1
SWIDTH 0 0
DWIDTH 0 0
BBX 1 1 0 0
BITMAP
00
ENDCHAR
STARTCHAR nonmarkingreturn
ENCODING -1
SWIDTH 150 0
DWIDTH 5 0
BBX 1 1 0 0
BITMAP
00
ENDCHAR
ENDFONT
